<svg id="Layer_1" data-name="Layer 1" xmlns="http://www.w3.org/2000/svg" viewBox="0 0 321.65 129.67"><defs><style>.cls-1{fill:#fff;}.cls-2{fill:#050405;}</style></defs><title>scc-logo</title><path class="cls-1" d="M97,134.84A68.21,68.21,0,0,0,67.45,264.51V178l20.46,23.3h18.18L126.55,178v86.48A68.2,68.2,0,0,0,97,134.84Z" transform="translate(-28.81 -134.84)"/><polygon class="cls-1" points="57.97 126.81 67.52 120.94 57.97 115.08 57.97 126.81"/><polygon class="cls-1" points="67.73 120.94 77.29 126.81 77.29 115.08 67.73 120.94"/><polygon class="cls-1" points="321.65 64.78 163.67 64.78 163.67 23.87 309.15 23.87 321.65 64.78"/><path class="cls-2" d="M207.7,195.86a8.35,8.35,0,0,1-4.47-1.25,9.34,9.34,0,0,1-3.23-3.32,8.85,8.85,0,0,1-1.21-4.57v-2.09a.21.21,0,0,1,.23-.23h5.09c.12,0,.18.08.18.23v2.09a3.65,3.65,0,0,0,1,2.57,3.23,3.23,0,0,0,4.82,0,3.65,3.65,0,0,0,1-2.55c0-1.12-.72-2.09-2.18-2.91l-2.27-1.27-2.91-1.64a9.6,9.6,0,0,1-3.71-3.66,10.25,10.25,0,0,1-1.2-5,8.64,8.64,0,0,1,1.23-4.57,9.14,9.14,0,0,1,3.25-3.2,8.77,8.77,0,0,1,8.82,0,9.33,9.33,0,0,1,3.23,3.23,8.71,8.71,0,0,1,1.2,4.52V176a.16.16,0,0,1-.18.18h-5.1a.16.16,0,0,1-.18-.18l0-3.73a3.54,3.54,0,0,0-1-2.59,3.28,3.28,0,0,0-2.37-1,3.2,3.2,0,0,0-2.41,1.07,3.59,3.59,0,0,0-1,2.52,4.59,4.59,0,0,0,.64,2.5,6.12,6.12,0,0,0,2.32,1.91l.89.48,1.43.77c.51.29,1,.54,1.39.75l.75.41a10.89,10.89,0,0,1,3.59,3.12,7.53,7.53,0,0,1,1.32,4.52,9.12,9.12,0,0,1-1.21,4.66,9,9,0,0,1-3.23,3.27A8.53,8.53,0,0,1,207.7,195.86Z" transform="translate(-28.81 -134.84)"/><path class="cls-2" d="M220,195.4c-.12,0-.18-.07-.18-.22l0-31.24a.16.16,0,0,1,.18-.18h14.6c.12,0,.18.08.18.23v5.09a.16.16,0,0,1-.18.18H225.3v7.1h9.32a.16.16,0,0,1,.18.18l0,5.13a.17.17,0,0,1-.19.19H225.3v7.95h9.36c.12,0,.19.08.19.23v5.18a.17.17,0,0,1-.19.18Z" transform="translate(-28.81 -134.84)"/><path class="cls-2" d="M239.07,195.4c-.12,0-.18-.07-.18-.22l.09-31.24a.16.16,0,0,1,.18-.18h9.19a8.77,8.77,0,0,1,4.52,1.21,9.26,9.26,0,0,1,3.3,3.22,8.64,8.64,0,0,1,1.22,4.57,8.49,8.49,0,0,1-.5,3,9.12,9.12,0,0,1-1.18,2.27,7.81,7.81,0,0,1-1.23,1.39,9.26,9.26,0,0,1,2.46,6.41l.05,9.32c0,.15-.08.22-.23.22h-5.14c-.12,0-.18,0-.18-.13v-9.41a4,4,0,0,0-1.16-2.84,3.77,3.77,0,0,0-2.84-1.21h-3l-.05,13.37c0,.15-.06.22-.18.22Zm5.37-19h3.91a3.51,3.51,0,0,0,2.5-1.05,3.49,3.49,0,0,0,0-5.05,3.5,3.5,0,0,0-2.52-1h-3.91Z" transform="translate(-28.81 -134.84)"/><path class="cls-2" d="M261,195.4c-.15,0-.23-.07-.23-.22l.05-31.24a.16.16,0,0,1,.18-.18h5.09a.16.16,0,0,1,.18.18l.05,31.24c0,.15-.06.22-.18.22Z" transform="translate(-28.81 -134.84)"/><path class="cls-2" d="M278.76,195.86a8.41,8.41,0,0,1-4.48-1.25,9.57,9.57,0,0,1-3.25-3.32,8.76,8.76,0,0,1-1.22-4.57l0-14.41a8.75,8.75,0,0,1,1.21-4.55,9.17,9.17,0,0,1,3.25-3.27,8.45,8.45,0,0,1,4.45-1.23,8.36,8.36,0,0,1,4.46,1.23,9.37,9.37,0,0,1,3.2,3.27,8.85,8.85,0,0,1,1.21,4.55l0,14.41a8.94,8.94,0,0,1-1.2,4.57,9.43,9.43,0,0,1-3.23,3.32A8.38,8.38,0,0,1,278.76,195.86Zm0-5.5a3.13,3.13,0,0,0,2.39-1.12,3.62,3.62,0,0,0,1-2.52l0-14.41a3.64,3.64,0,0,0-1-2.55,3.15,3.15,0,0,0-2.41-1,3.26,3.26,0,0,0-2.41,1,3.51,3.51,0,0,0-1,2.57v14.41a3.61,3.61,0,0,0,1,2.57A3.2,3.2,0,0,0,278.76,190.36Z" transform="translate(-28.81 -134.84)"/><path class="cls-2" d="M299.76,195.86a8.4,8.4,0,0,1-4.45-1.25,9.29,9.29,0,0,1-3.25-3.34,9.1,9.1,0,0,1-1.21-4.59l.1-22.74c0-.12.05-.18.18-.18h5.09a.16.16,0,0,1,.18.18v22.74a3.73,3.73,0,0,0,1,2.61,3.12,3.12,0,0,0,2.38,1.07,3.2,3.2,0,0,0,2.44-1.07,3.72,3.72,0,0,0,1-2.61V163.94a.17.17,0,0,1,.19-.18h5.09a.16.16,0,0,1,.18.18l.09,22.74a9.19,9.19,0,0,1-4.43,7.95A8.55,8.55,0,0,1,299.76,195.86Z" transform="translate(-28.81 -134.84)"/><path class="cls-2" d="M320,195.86a8.38,8.38,0,0,1-4.48-1.25,9.43,9.43,0,0,1-3.23-3.32,8.94,8.94,0,0,1-1.2-4.57v-2.09a.21.21,0,0,1,.23-.23h5.09c.12,0,.18.08.18.23v2.09a3.61,3.61,0,0,0,1,2.57,3.23,3.23,0,0,0,4.82,0,3.65,3.65,0,0,0,1-2.55c0-1.12-.73-2.09-2.18-2.91L319,182.54l-2.91-1.64a9.53,9.53,0,0,1-3.71-3.66,10.25,10.25,0,0,1-1.2-5,8.64,8.64,0,0,1,1.22-4.57,9.3,9.3,0,0,1,3.25-3.2,8.77,8.77,0,0,1,8.82,0,9.17,9.17,0,0,1,3.23,3.23,8.71,8.71,0,0,1,1.21,4.52V176c0,.12-.06.18-.19.18h-5.09a.16.16,0,0,1-.18-.18l0-3.73a3.54,3.54,0,0,0-1-2.59,3.28,3.28,0,0,0-2.37-1,3.2,3.2,0,0,0-2.41,1.07,3.54,3.54,0,0,0-1,2.52,4.51,4.51,0,0,0,.64,2.5,6,6,0,0,0,2.32,1.91c.15.09.44.25.88.48l1.44.77q.76.44,1.38.75c.41.22.66.35.75.41a10.79,10.79,0,0,1,3.59,3.12,7.53,7.53,0,0,1,1.32,4.52,9,9,0,0,1-4.43,7.93A8.53,8.53,0,0,1,320,195.86Z" transform="translate(-28.81 -134.84)"/><path class="cls-1" d="M208.34,250.42a8.37,8.37,0,0,1-4.52-1.26,9.11,9.11,0,0,1-3.21-3.34,9.3,9.3,0,0,1-1.18-4.68l0-14.18a9.21,9.21,0,0,1,1.15-4.57,9.07,9.07,0,0,1,3.19-3.32,8.36,8.36,0,0,1,4.52-1.25,8.48,8.48,0,0,1,4.5,1.22,9.19,9.19,0,0,1,4.37,7.92v2.09a.17.17,0,0,1-.19.18h-5.09a.16.16,0,0,1-.18-.18V227a3.79,3.79,0,0,0-1-2.6,3.15,3.15,0,0,0-2.43-1.09,3,3,0,0,0-2.5,1.12A4,4,0,0,0,205,227v14.18a3.85,3.85,0,0,0,1,2.73,3.15,3.15,0,0,0,2.39,1,3,3,0,0,0,2.43-1.16,3.94,3.94,0,0,0,1-2.61v-2.09a.16.16,0,0,1,.18-.18h5.14a.16.16,0,0,1,.18.18v2.09a9.21,9.21,0,0,1-1.2,4.68,9.43,9.43,0,0,1-3.21,3.34A8.25,8.25,0,0,1,208.34,250.42Z" transform="translate(-28.81 -134.84)"/><path class="cls-1" d="M218.21,249.73l5.63-31.23a.22.22,0,0,1,.23-.18h6.59a.22.22,0,0,1,.23.18l5.41,31.23c0,.15,0,.23-.18.23h-5.05c-.12,0-.2-.08-.23-.23l-.5-3.32h-6.18l-.5,3.32c0,.15-.11.23-.23.23h-5C218.27,250,218.21,249.88,218.21,249.73Zm6.86-8.18h4.36l-1.86-12.78-.27-1.68-.18,1.68Z" transform="translate(-28.81 -134.84)"/><path class="cls-1" d="M241.53,250c-.12,0-.18-.08-.18-.23V223.82h-5.91a.2.2,0,0,1-.23-.23l0-5.09c0-.12.06-.18.19-.18h17.27c.15,0,.23.06.23.18v5.09c0,.15-.06.23-.18.23h-6l0,25.91c0,.15-.06.23-.18.23Z" transform="translate(-28.81 -134.84)"/><path class="cls-1" d="M270.26,250.42a8.37,8.37,0,0,1-4.52-1.26,9.11,9.11,0,0,1-3.21-3.34,9.3,9.3,0,0,1-1.18-4.68l0-14.18a9.21,9.21,0,0,1,1.15-4.57,9.07,9.07,0,0,1,3.19-3.32,8.36,8.36,0,0,1,4.52-1.25,8.48,8.48,0,0,1,4.5,1.22,9.19,9.19,0,0,1,4.37,7.92v2.09c0,.12-.06.18-.19.18h-5.09a.16.16,0,0,1-.18-.18V227a3.79,3.79,0,0,0-1-2.6,3.15,3.15,0,0,0-2.43-1.09,3,3,0,0,0-2.5,1.12,4,4,0,0,0-.86,2.57v14.18a3.85,3.85,0,0,0,1,2.73,3.15,3.15,0,0,0,2.39,1,3,3,0,0,0,2.43-1.16,3.94,3.94,0,0,0,1-2.61v-2.09a.16.16,0,0,1,.18-.18H279a.16.16,0,0,1,.18.18v2.09a9.21,9.21,0,0,1-1.2,4.68,9.43,9.43,0,0,1-3.21,3.34A8.25,8.25,0,0,1,270.26,250.42Z" transform="translate(-28.81 -134.84)"/><path class="cls-1" d="M290.9,250.42a8.3,8.3,0,0,1-4.48-1.26,9.62,9.62,0,0,1-3.25-3.31,8.8,8.8,0,0,1-1.23-4.57l.05-14.42a8.8,8.8,0,0,1,1.2-4.54,9.28,9.28,0,0,1,3.25-3.28,8.6,8.6,0,0,1,4.46-1.22,8.44,8.44,0,0,1,4.46,1.22,9.31,9.31,0,0,1,3.2,3.28,8.81,8.81,0,0,1,1.21,4.54l0,14.42a9,9,0,0,1-1.2,4.57,9.48,9.48,0,0,1-3.23,3.31A8.3,8.3,0,0,1,290.9,250.42Zm0-5.51a3.17,3.17,0,0,0,2.39-1.11,3.62,3.62,0,0,0,1-2.52l-.05-14.42a3.61,3.61,0,0,0-.95-2.54,3.12,3.12,0,0,0-2.41-1,3.23,3.23,0,0,0-2.41,1,3.49,3.49,0,0,0-1,2.56v14.42a3.59,3.59,0,0,0,1,2.56A3.16,3.16,0,0,0,290.9,244.91Z" transform="translate(-28.81 -134.84)"/><path class="cls-1" d="M303.45,250c-.12,0-.18-.08-.18-.23l.09-31.23a.16.16,0,0,1,.18-.18h9.18a8.87,8.87,0,0,1,4.53,1.2,9.26,9.26,0,0,1,3.29,3.23,9.21,9.21,0,0,1,.73,7.59,9.35,9.35,0,0,1-1.18,2.28,8.14,8.14,0,0,1-1.23,1.38,9.26,9.26,0,0,1,2.45,6.41l.05,9.32a.21.21,0,0,1-.23.23H316c-.13,0-.19-.05-.19-.14v-9.41a3.94,3.94,0,0,0-1.16-2.84,3.79,3.79,0,0,0-2.84-1.2h-3l0,13.36c0,.15-.06.23-.19.23Zm5.36-19.05h3.91a3.52,3.52,0,0,0,2.5-1,3.5,3.5,0,0,0,0-5.05,3.51,3.51,0,0,0-2.53-1h-3.91Z" transform="translate(-28.81 -134.84)"/><path class="cls-1" d="M325.41,250a.2.2,0,0,1-.23-.23l.09-31.23a.16.16,0,0,1,.18-.18h8.73a8.76,8.76,0,0,1,6.62,2.54,9.6,9.6,0,0,1,2.43,6.91,11.75,11.75,0,0,1-1.27,5.6,9.44,9.44,0,0,1-3.32,3.63,8.29,8.29,0,0,1-4.46,1.28h-3.45v11.45a.21.21,0,0,1-.23.23Zm5.32-17.19h3.45a3.12,3.12,0,0,0,2.52-1.38,5.73,5.73,0,0,0,1.07-3.62,4.41,4.41,0,0,0-.95-2.91,3.29,3.29,0,0,0-2.64-1.13l-3.45,0Z" transform="translate(-28.81 -134.84)"/><path class="cls-1" d="M343.77,250a.16.16,0,0,1-.18-.18v-5.14a.16.16,0,0,1,.18-.18h5.14a.16.16,0,0,1,.18.18v5.14a.16.16,0,0,1-.18.18Z" transform="translate(-28.81 -134.84)"/></svg>