<svg id="Layer_1" data-name="Layer 1" xmlns="http://www.w3.org/2000/svg" viewBox="0 0 333.22 247.87"><defs><style>.cls-1{fill:#fff;}</style></defs><title>sound-on</title><path class="cls-1" d="M59.34,151.33h42l76.38-69.56c14.11-12.85,36.76-2.84,36.76,16.24V301.86c0,19.08-22.65,29.09-36.76,16.24l-63.89-58.18H59.34a25.85,25.85,0,0,1-25.85-25.85V177.18A25.85,25.85,0,0,1,59.34,151.33Z" transform="translate(-33.49 -76)"/><path class="cls-1" d="M313.31,321.38,294,299.81a131.19,131.19,0,0,0,0-195.62l19.32-21.57a160.14,160.14,0,0,1,0,238.76Z" transform="translate(-33.49 -76)"/><path class="cls-1" d="M278.15,261.37l-19.32-21.58a50.68,50.68,0,0,0,0-75.58l19.32-21.57a79.64,79.64,0,0,1,0,118.73Z" transform="translate(-33.49 -76)"/></svg>