<svg id="Layer_1" data-name="Layer 1" xmlns="http://www.w3.org/2000/svg" viewBox="0 0 309.01 383.45"><defs><style>.cls-1{fill:#fff;}</style></defs><path class="cls-1" d="M297.26,326.63V119.44c11.35,3,22.39,5.82,33.41,8.76,40.7,10.89,81.38,21.86,122.13,32.61,3.41.9,4.42,2.14,4.39,5.63-.17,21.82-.09,43.65-.09,65.47v4.47c-13.4-3.61-26.34-7.09-39.28-10.61-24.49-6.66-49-13.28-73.44-20.11-3.56-1-4.57-.53-4.56,3.32q.23,96.45.23,192.91c0,30.87-10.1,57.28-33.74,77.9-52.58,45.86-136.92,20-154.83-47.41-14.25-53.7,19.14-108.43,73.05-119.13,24.22-4.81,47.27-1,68.64,11.7.86.51,1.72,1,2.61,1.47A6.73,6.73,0,0,0,297.26,326.63Z" transform="translate(-148.18 -119.44)"/></svg>