<svg id="Layer_1" data-name="Layer 1" xmlns="http://www.w3.org/2000/svg" viewBox="0 0 316.71 383.45"><defs><style>.cls-1{fill:#fff;}</style></defs><path class="cls-1" d="M340,316.77q0-53.89-.15-107.79c0-3.85,1-4.32,4.56-3.32,24.45,6.83,48.95,13.45,73.44,20.11,12.94,3.52,25.88,7,39.28,10.61v-4.47c0-21.82-.08-43.65.09-65.47,0-3.49-1-4.73-4.39-5.63-40.75-10.75-81.43-21.72-122.13-32.61-11-2.94-22.06-5.79-33.41-8.76V270.6Z" transform="translate(-140.48 -119.44)"/><polygon class="cls-1" points="38.91 43.83 0 100.66 275.75 383.45 303.98 330.42 38.91 43.83"/><path class="cls-1" d="M215.92,315.38c-48.79,14.53-77.92,66.22-64.44,117,17.91,67.45,102.25,93.27,154.83,47.41,14-12.22,23.27-26.47,28.49-42.49Z" transform="translate(-140.48 -119.44)"/></svg>