<svg id="Layer_1" data-name="Layer 1" xmlns="http://www.w3.org/2000/svg" viewBox="0 0 333.23 247.72"><defs><style>.cls-1{fill:none;}.cls-2{fill:#fff;}</style></defs><title>sound-off</title><path class="cls-1" d="M279.82,245.38l-19.31-21.57a131.19,131.19,0,0,0,0-195.62L279.83,6.62a160.14,160.14,0,0,1,0,238.76Z" transform="translate(0 0)"/><path class="cls-1" d="M244.66,185.37l-19.32-21.58a50.68,50.68,0,0,0,0-75.58l19.32-21.57a79.64,79.64,0,0,1,0,118.73Z" transform="translate(0 0)"/><polygon class="cls-2" points="84.81 19.18 116.41 234.03 137.47 234.03 104.61 19.18 84.81 19.18"/><path class="cls-2" d="M70.74,72.7l-2.89,2.63h-42A25.85,25.85,0,0,0,0,101.18v56.89a25.85,25.85,0,0,0,25.85,25.85H80.34l7.8,7.1Z" transform="translate(0 0)"/><path class="cls-2" d="M144.23,5.77,126.74,21.7l34.56,226A21.89,21.89,0,0,0,181,225.86V22C181,2.93,158.34-7.08,144.23,5.77Z" transform="translate(0 0)"/></svg>